<svg id="Grupo_1435" data-name="Grupo 1435" xmlns="http://www.w3.org/2000/svg" width="161.715" height="19.202" viewBox="0 0 161.715 19.202">
  <path id="Trazado_1" data-name="Trazado 1" d="M11.541,6.174a.634.634,0,0,1,.371.54.57.57,0,0,1-.1.337L9.854,10.427a.267.267,0,0,1-.27.169.3.3,0,0,1-.27-.169L7.357,7.052a.57.57,0,0,1-.1-.337.6.6,0,0,1,.337-.54A5.78,5.78,0,0,1,9.584,5.8a6.485,6.485,0,0,1,1.957.371ZM5.771,7.288a.509.509,0,0,1,.54-.034.573.573,0,0,1,.2.2L8.1,10.19c.034.067.067.169,0,.236a.342.342,0,0,1-.236.135H4.691a.364.364,0,0,1-.27-.067.492.492,0,0,1-.236-.439A4.709,4.709,0,0,1,4.725,8.5,6.028,6.028,0,0,1,5.771,7.288Zm7.593,0a.509.509,0,0,0-.54-.034.573.573,0,0,0-.2.2L11.035,10.19a.163.163,0,0,0,0,.236.342.342,0,0,0,.236.135h3.172a.364.364,0,0,0,.27-.067.492.492,0,0,0,.236-.439A4.709,4.709,0,0,0,14.41,8.5a6.028,6.028,0,0,0-1.046-1.215ZM10.023,11.54v2.936H9.112V11.54H4.725a1.281,1.281,0,0,1-.776-.2,1.455,1.455,0,0,1-.709-1.282.428.428,0,0,1,.034-.2,5.271,5.271,0,0,1,.675-1.789A5.959,5.959,0,0,1,5.2,6.579a1.535,1.535,0,0,1,1.215-.27A1.5,1.5,0,0,1,7.188,5.4a.738.738,0,0,0,.169-.1,7.069,7.069,0,0,1,2.261-.4,6.253,6.253,0,0,1,2.261.4,1.633,1.633,0,0,1,.911.979,1.394,1.394,0,0,1,1.147.236,5.943,5.943,0,0,1,1.316,1.552,6.086,6.086,0,0,1,.675,1.789.428.428,0,0,0,.034.2,1.388,1.388,0,0,1-.709,1.282,1.568,1.568,0,0,1-.776.2H10.023ZM9.584,1.011a8.673,8.673,0,1,0,8.639,8.673A8.67,8.67,0,0,0,9.584,1.011Zm0-.911A9.567,9.567,0,1,1,0,9.684,9.578,9.578,0,0,1,9.584.1Z" transform="translate(0 -0.066)" fill="#fff" fill-rule="evenodd"/>
  <g id="Grupo_1" data-name="Grupo 1" transform="translate(27.2)">
    <path id="Trazado_2" data-name="Trazado 2" d="M87.687,0l4.657,9.584L97.035,0h7.087V19.168H97.035V9.584l-4.691,9.584L87.687,9.584v9.584H80.6V0Z" transform="translate(-80.6)" fill="#fff"/>
    <path id="Trazado_3" data-name="Trazado 3" d="M168.778,2.868l-2.869,9.989h5.737ZM157,19.168,162.534,0h12.52l5.5,19.168h-7.087l-.911-3.138H165l-.911,3.138Z" transform="translate(-131.217)" fill="#fff"/>
    <path id="Trazado_4" data-name="Trazado 4" d="M242.14,2.227c1.586,0,3.139.844,3.139,2.6a3.111,3.111,0,0,1-3.139,3.138h-1.552V2.227h1.552ZM246.663,0a5.6,5.6,0,1,1,0,11.2h-6.176v8H233.4V0Z" transform="translate(-181.835)" fill="#fff" fill-rule="evenodd"/>
    <path id="Trazado_5" data-name="Trazado 5" d="M296.6,0h18.8V3.138H303.653V8.032H315.4V11.17H303.653v8H296.6Z" transform="translate(-223.707)" fill="#fff"/>
    <path id="Trazado_6" data-name="Trazado 6" d="M430.487,16.03h11.744v3.138H423.4V0h18.831V3.138H430.487V8.032h11.744V11.17H430.487Z" transform="translate(-307.716)" fill="#fff"/>
    <path id="Trazado_7" data-name="Trazado 7" d="M368.44,2.227c1.552,0,3.138.844,3.138,2.6a3.132,3.132,0,0,1-3.138,3.138h-1.553V2.227h1.553Zm10.09,12.014v0Zm0,.135v4.792h-6.952V14.376a3.154,3.154,0,0,0-3.138-3.138h-1.553v7.931H359.7V0h14.039a4.792,4.792,0,0,1,0,9.584,4.777,4.777,0,0,1,4.792,4.623Z" transform="translate(-265.513)" fill="#fff" fill-rule="evenodd"/>
  </g>
</svg>
