<svg xmlns="http://www.w3.org/2000/svg" width="22.601" height="22.601" viewBox="0 0 22.601 22.601">
  <g id="Grupo_1392" data-name="Grupo 1392" transform="translate(-7667 -1232)">
    <path id="Trazado_12" data-name="Trazado 12" d="M16.835,13.843l-.008.071c-2.071-1.032-2.287-1.17-2.555-.768-.186.278-.726.908-.889,1.094s-.329.2-.608.071a7.643,7.643,0,0,1-2.263-1.4,8.544,8.544,0,0,1-1.563-1.949c-.276-.476.3-.544.827-1.539a.518.518,0,0,0-.024-.493c-.071-.141-.633-1.526-.868-2.077s-.459-.48-.633-.48A1.4,1.4,0,0,0,6.962,6.7c-1.52,1.671-1.137,3.394.164,5.226,2.556,3.345,3.917,3.961,6.407,4.816a3.9,3.9,0,0,0,1.77.114,2.9,2.9,0,0,0,1.9-1.343,2.331,2.331,0,0,0,.17-1.342C17.3,14.041,17.117,13.97,16.835,13.843Z" transform="translate(7666.652 1231.63)" fill="#fff"/>
    <path id="Trazado_13" data-name="Trazado 13" d="M19.324,3.248C12.083-3.752.1,1.325.1,11.2a11.146,11.146,0,0,0,1.5,5.6L0,22.6l5.966-1.556A11.273,11.273,0,0,0,22.6,11.205a11.107,11.107,0,0,0-3.291-7.921Zm1.4,7.926A9.376,9.376,0,0,1,6.582,19.182l-.339-.2L2.712,19.9l.946-3.432-.225-.353A9.34,9.34,0,0,1,17.98,4.592a9.217,9.217,0,0,1,2.739,6.582Z" transform="translate(7667 1232)" fill="#fff"/>
  </g>
</svg>
